
  <svg xmlns="http://www.w3.org/2000/svg" viewBox="0 0 500 500">
    <rect
    y="0"
    height="35"
    width="500" 
    fill="steelblue"/>
<rect
    y="50"
    height="35"
    width="371.42857142857144" 
    fill="steelblue"/>
<rect
    y="100"
    height="35"
    width="357.14285714285717" 
    fill="steelblue"/>
<rect
    y="150"
    height="35"
    width="314.2857142857143" 
    fill="steelblue"/>
<rect
    y="200"
    height="35"
    width="314.2857142857143" 
    fill="steelblue"/>
<rect
    y="250"
    height="35"
    width="314.2857142857143" 
    fill="steelblue"/>
<rect
    y="300"
    height="35"
    width="271.4285714285714" 
    fill="steelblue"/>
<rect
    y="350"
    height="35"
    width="271.4285714285714" 
    fill="steelblue"/>
<rect
    y="400"
    height="35"
    width="271.4285714285714" 
    fill="steelblue"/>
<rect
    y="450"
    height="35"
    width="242.85714285714286" 
    fill="steelblue"/>
    <text
    x="10"
    y="24.5"
    fill="white">
    MADONNA
  </text>
<text
    x="10"
    y="74.5"
    fill="white">
    ELTON JOHN
  </text>
<text
    x="10"
    y="124.5"
    fill="white">
    MARIAH CAREY
  </text>
<text
    x="10"
    y="174.5"
    fill="white">
    STEVIE WONDER
  </text>
<text
    x="10"
    y="224.5"
    fill="white">
    MICHAEL JACKSON
  </text>
<text
    x="10"
    y="274.5"
    fill="white">
    JANET JACKSON
  </text>
<text
    x="10"
    y="324.5"
    fill="white">
    WHITNEY HOUSTON
  </text>
<text
    x="10"
    y="374.5"
    fill="white">
    RIHANNA
  </text>
<text
    x="10"
    y="424.5"
    fill="white">
    TAYLOR SWIFT
  </text>
<text
    x="10"
    y="474.5"
    fill="white">
    THE BEATLES
  </text>
    <text
    x="490"
    y="24.5"
    fill="white"
    text-anchor="end">
    35
    </text>
<text
    x="361.42857142857144"
    y="74.5"
    fill="white"
    text-anchor="end">
    26
    </text>
<text
    x="347.14285714285717"
    y="124.5"
    fill="white"
    text-anchor="end">
    25
    </text>
<text
    x="304.2857142857143"
    y="174.5"
    fill="white"
    text-anchor="end">
    22
    </text>
<text
    x="304.2857142857143"
    y="224.5"
    fill="white"
    text-anchor="end">
    22
    </text>
<text
    x="304.2857142857143"
    y="274.5"
    fill="white"
    text-anchor="end">
    22
    </text>
<text
    x="261.4285714285714"
    y="324.5"
    fill="white"
    text-anchor="end">
    19
    </text>
<text
    x="261.4285714285714"
    y="374.5"
    fill="white"
    text-anchor="end">
    19
    </text>
<text
    x="261.4285714285714"
    y="424.5"
    fill="white"
    text-anchor="end">
    19
    </text>
<text
    x="232.85714285714286"
    y="474.5"
    fill="white"
    text-anchor="end">
    17
    </text>
  </svg>
